<?xml version="1.0" encoding="UTF-8"?>
<svg width="106px" height="18px" viewBox="0 0 106 18" version="1.1" xmlns="http://www.w3.org/2000/svg" xmlns:xlink="http://www.w3.org/1999/xlink">
    <!-- Generator: Sketch 64 (93537) - https://sketch.com -->
    <title>star</title>
    <desc>Created with Sketch.</desc>
    <g id="Landing-page" stroke="none" stroke-width="1" fill="none" fill-rule="evenodd">
        <g id="Homepage-selenium" transform="translate(-572.000000, -5189.000000)" fill="#F8C604" fill-rule="nonzero">
            <g id="reviews" transform="translate(0.000000, 4802.000000)">
                <g id="bottom" transform="translate(572.000000, 387.000000)">
                    <g id="star">
                        <path d="M17.0781165,6.02899698 L12.1626112,5.28026145 L9.96560576,0.626149513 C9.5719616,-0.203435394 8.43140288,-0.213980964 8.03439424,0.626149513 L5.83738879,5.28026145 L0.921883499,6.02899698 C0.0403897371,6.16257421 -0.312880664,7.29798067 0.326370538,7.94829087 L3.88262591,11.5689369 L3.0415059,16.6835387 C2.8901043,17.6080338 3.82206527,18.3005263 4.60262463,17.8681578 L9,15.4532221 L13.3973754,17.8681578 C14.1779347,18.2970111 15.1098957,17.6080338 14.9584941,16.6835387 L14.1173741,11.5689369 L17.6736295,7.94829087 C18.3128807,7.29798067 17.9596103,6.16257421 17.0781165,6.02899698 L17.0781165,6.02899698 Z" id="Shape"></path>
                        <path d="M39.0781165,6.02899698 L34.1626112,5.28026145 L31.9656058,0.626149513 C31.5719616,-0.203435394 30.4314029,-0.213980964 30.0343942,0.626149513 L27.8373888,5.28026145 L22.9218835,6.02899698 C22.0403897,6.16257421 21.6871193,7.29798067 22.3263705,7.94829087 L25.8826259,11.5689369 L25.0415059,16.6835387 C24.8901043,17.6080338 25.8220653,18.3005263 26.6026246,17.8681578 L31,15.4532221 L35.3973754,17.8681578 C36.1779347,18.2970111 37.1098957,17.6080338 36.9584941,16.6835387 L36.1173741,11.5689369 L39.6736295,7.94829087 C40.3128807,7.29798067 39.9596103,6.16257421 39.0781165,6.02899698 L39.0781165,6.02899698 Z" id="Shape-Copy"></path>
                        <path d="M61.0781165,6.02899698 L56.1626112,5.28026145 L53.9656058,0.626149513 C53.5719616,-0.203435394 52.4314029,-0.213980964 52.0343942,0.626149513 L49.8373888,5.28026145 L44.9218835,6.02899698 C44.0403897,6.16257421 43.6871193,7.29798067 44.3263705,7.94829087 L47.8826259,11.5689369 L47.0415059,16.6835387 C46.8901043,17.6080338 47.8220653,18.3005263 48.6026246,17.8681578 L53,15.4532221 L57.3973754,17.8681578 C58.1779347,18.2970111 59.1098957,17.6080338 58.9584941,16.6835387 L58.1173741,11.5689369 L61.6736295,7.94829087 C62.3128807,7.29798067 61.9596103,6.16257421 61.0781165,6.02899698 L61.0781165,6.02899698 Z" id="Shape-Copy-2"></path>
                        <path d="M83.0781165,6.02899698 L78.1626112,5.28026145 L75.9656058,0.626149513 C75.5719616,-0.203435394 74.4314029,-0.213980964 74.0343942,0.626149513 L71.8373888,5.28026145 L66.9218835,6.02899698 C66.0403897,6.16257421 65.6871193,7.29798067 66.3263705,7.94829087 L69.8826259,11.5689369 L69.0415059,16.6835387 C68.8901043,17.6080338 69.8220653,18.3005263 70.6026246,17.8681578 L75,15.4532221 L79.3973754,17.8681578 C80.1779347,18.2970111 81.1098957,17.6080338 80.9584941,16.6835387 L80.1173741,11.5689369 L83.6736295,7.94829087 C84.3128807,7.29798067 83.9596103,6.16257421 83.0781165,6.02899698 L83.0781165,6.02899698 Z" id="Shape-Copy-3"></path>
                        <path d="M105.078117,6.02899698 L100.162611,5.28026145 L97.9656058,0.626149513 C97.5719616,-0.203435394 96.4314029,-0.213980964 96.0343942,0.626149513 L93.8373888,5.28026145 L88.9218835,6.02899698 C88.0403897,6.16257421 87.6871193,7.29798067 88.3263705,7.94829087 L91.8826259,11.5689369 L91.0415059,16.6835387 C90.8901043,17.6080338 91.8220653,18.3005263 92.6026246,17.8681578 L97,15.4532221 L101.397375,17.8681578 C102.177935,18.2970111 103.109896,17.6080338 102.958494,16.6835387 L102.117374,11.5689369 L105.673629,7.94829087 C106.312881,7.29798067 105.95961,6.16257421 105.078117,6.02899698 L105.078117,6.02899698 Z" id="Shape-Copy-4"></path>
                    </g>
                </g>
            </g>
        </g>
    </g>
</svg>