<?xml version="1.0" encoding="UTF-8"?>
<svg width="24px" height="24px" viewBox="0 0 24 24" version="1.1" xmlns="http://www.w3.org/2000/svg" xmlns:xlink="http://www.w3.org/1999/xlink">
    <!-- Generator: Sketch 64 (93537) - https://sketch.com -->
    <title>Shape</title>
    <desc>Created with Sketch.</desc>
    <g id="Landing-page" stroke="none" stroke-width="1" fill="none" fill-rule="evenodd">
        <g id="Homepage-selenium" transform="translate(-637.000000, -387.000000)" fill="#168C44" fill-rule="nonzero">
            <g id="hero-full" transform="translate(0.000000, 46.000000)">
                <g id="content" transform="translate(637.000000, 39.000000)">
                    <g id="list" transform="translate(0.000000, 298.000000)">
                        <path d="M12,4 C5.37256452,4 0,9.37256452 0,16 C0,22.6274355 5.37256452,28 12,28 C18.6274355,28 24,22.6274355 24,16 C24,9.37256452 18.6274355,4 12,4 Z M12,26.4516129 C6.25819355,26.4516129 1.5483871,21.8037903 1.5483871,16 C1.5483871,10.2582419 6.19620968,5.5483871 12,5.5483871 C17.7418065,5.5483871 22.4516129,10.1962097 22.4516129,16 C22.4516129,21.7417581 17.8037903,26.4516129 12,26.4516129 Z M18.8530645,13.1470484 L10.1201613,21.8098871 C9.8925,22.0357097 9.52485484,22.0342581 9.29903226,21.8065968 L5.14364516,17.617629 C4.91782258,17.3899677 4.91927419,17.0223226 5.14693548,16.7965 L5.55919355,16.3875806 C5.78685484,16.1617581 6.1545,16.1632097 6.38032258,16.390871 L9.71787097,19.755371 L17.6263065,11.910371 C17.8539677,11.6845484 18.2216129,11.686 18.4474355,11.9136613 L18.8563548,12.3259194 C19.0822258,12.5535806 19.0807258,12.9212258 18.8530645,13.1470484 L18.8530645,13.1470484 Z" id="Shape"></path>
                    </g>
                </g>
            </g>
        </g>
    </g>
</svg>