<?xml version="1.0" encoding="UTF-8"?>
<svg width="25px" height="22px" viewBox="0 0 25 22" version="1.1" xmlns="http://www.w3.org/2000/svg" xmlns:xlink="http://www.w3.org/1999/xlink">
    <!-- Generator: Sketch 64 (93537) - https://sketch.com -->
    <title>Shape</title>
    <desc>Created with Sketch.</desc>
    <g id="Landing-page" stroke="none" stroke-width="1" fill="none" fill-rule="evenodd">
        <g id="Homepage-selenium" transform="translate(-832.000000, -754.000000)" fill="#FFFFFF" fill-rule="nonzero">
            <g id="hero-full" transform="translate(0.000000, 46.000000)">
                <g id="content" transform="translate(637.000000, 39.000000)">
                    <g id="CTA-BUTTONS" transform="translate(0.000000, 653.000000)">
                        <g id="CTA-button">
                            <g id="Group-2" transform="translate(195.000000, 16.000000)">
                                <path d="M23.7183633,2.75 L5.555,2.75 L5.19711328,0.841199219 C5.10563281,0.353460938 4.67976953,0 4.18352344,0 L0.515625,0 C0.230871094,0 0,0.230871094 0,0.515625 L0,0.859375 C0,1.14412891 0.230871094,1.375 0.515625,1.375 L3.898125,1.375 L6.90280078,17.4000234 C6.45841797,17.8884922 6.1875,18.5375781 6.1875,19.25 C6.1875,20.7687734 7.41872656,22 8.9375,22 C10.4562734,22 11.6875,20.7687734 11.6875,19.25 C11.6880356,18.7671552 11.5607956,18.2927664 11.3186992,17.875 L17.5563437,17.875 C17.3142474,18.2927664 17.1870074,18.7671552 17.187543,19.25 C17.187543,20.7687734 18.4187695,22 19.937543,22 C21.4563164,22 22.687543,20.7687734 22.687543,19.25 C22.687543,18.4768633 22.3680703,17.77875 21.8544648,17.2791094 C21.7431328,16.8390664 21.3451562,16.5 20.8539375,16.5 L8.133125,16.5 L7.6175,13.75 L21.8565273,13.75 C22.3449961,13.75 22.7664766,13.4072813 22.8661211,12.929082 L24.728,3.99158203 C24.861375,3.35117578 24.3725195,2.75 23.7183633,2.75 Z M10.3125,19.25 C10.3125,20.0081836 9.69568359,20.625 8.9375,20.625 C8.17931641,20.625 7.5625,20.0081836 7.5625,19.25 C7.5625,18.4918164 8.17931641,17.875 8.9375,17.875 C9.69568359,17.875 10.3125,18.4918164 10.3125,19.25 Z M19.9375,20.625 C19.1793164,20.625 18.5625,20.0081836 18.5625,19.25 C18.5625,18.4918164 19.1793164,17.875 19.9375,17.875 C20.6956836,17.875 21.3125,18.4918164 21.3125,19.25 C21.3125,20.0081836 20.6956836,20.625 19.9375,20.625 Z M21.5770156,12.375 L7.3596875,12.375 L5.8128125,4.125 L23.2957656,4.125 L21.5770156,12.375 Z" id="Shape"></path>
                            </g>
                        </g>
                    </g>
                </g>
            </g>
        </g>
    </g>
</svg>